<?xml version="1.0" encoding="UTF-8"?>
<svg width="332px" height="70px" viewBox="0 0 332 70" version="1.1" xmlns="http://www.w3.org/2000/svg" xmlns:xlink="http://www.w3.org/1999/xlink">
    <!-- Generator: Sketch 48.1 (47250) - http://www.bohemiancoding.com/sketch -->
    <title>Group</title>
    <desc>Created with Sketch.</desc>
    <defs>
        <rect id="path-1" x="0" y="0" width="62" height="62" rx="8"></rect>
        <filter x="-11.3%" y="-8.1%" width="122.6%" height="122.6%" filterUnits="objectBoundingBox" id="filter-2">
            <feOffset dx="0" dy="2" in="SourceAlpha" result="shadowOffsetOuter1"></feOffset>
            <feGaussianBlur stdDeviation="2" in="shadowOffsetOuter1" result="shadowBlurOuter1"></feGaussianBlur>
            <feColorMatrix values="0 0 0 0 0   0 0 0 0 0   0 0 0 0 0  0 0 0 0.0923063859 0" type="matrix" in="shadowBlurOuter1"></feColorMatrix>
        </filter>
        <polygon id="path-3" points="31.9938242 32.9797743 31.9938242 0.0246573724 0.0169671941 0.0246573724 0.0169671941 32.9797743"></polygon>
    </defs>
    <g id="Page-1" stroke="none" stroke-width="1" fill="none" fill-rule="evenodd">
        <g id="Group" transform="translate(4.000000, 2.000000)">
            <g id="Group-3" transform="translate(91.000000, 4.000000)"></g>
            <path d="M102.963659,4.7668 L92.1784741,4.7668 C90.959363,4.7668 91.0161778,5.35544865 91.0161778,6.31966486 L91.0161778,9.65890811 L91.0161778,10.6834486 C91.0161778,11.5844216 91.3647704,11.7079892 92.2564741,11.7079892 L93.2502519,11.7079892 L97.8224,11.7079892 L100.846104,11.7079892 L102.909733,11.7079892 C107.043733,11.7079892 109.996178,12.5729622 109.983659,17.3492865 C109.996178,21.4493946 107.043733,22.6403135 102.909733,22.6403135 L92.2564741,22.6403135 C91.2145481,22.6247459 91.0007704,22.6247459 91.0161778,23.5062595 C90.9805481,23.6123135 91.0161778,27.7425838 91.0161778,27.7425838 L91.0161778,38.4472324 C91.0161778,39.6790162 91.2251407,40.0000973 92.1784741,40.0000973 L96.2855111,40.0000973 C97.2417333,40.0000973 97.8224,39.6790162 97.8224,38.4472324 L97.8224,29.5571784 L102.909733,29.5571784 C111.973141,29.5571784 116.846696,24.6319892 116.846696,17.1887459 C116.846696,9.79998919 112.078104,4.7668 102.963659,4.7668" id="Fill-1" fill="#FB3353" stroke="#FFFFFF" stroke-width="2"></path>
            <path d="M195.491142,33.8145087 L195.478507,33.8145087 L193.891381,31.748149 L188.526447,24.2494662 C188.089088,23.6700313 187.878184,23.084773 187.857774,22.496603 C187.878184,21.9084329 188.089088,21.3241452 188.526447,20.7447104 L193.891381,13.2469981 L195.478507,11.1796678 L195.491142,11.1796678 L198.400063,7.39150329 C199.299078,6.20254569 199.299078,5.00485289 197.62934,5 L196.6516,5 L194.472582,5 L193.105107,5 C192.338271,5.02911733 191.547138,5.29602618 189.988197,7.39150329 L185.103386,13.6662877 L183.445311,15.8743518 C183.120694,16.2781121 182.804823,16.4858157 182.500616,16.4984332 L182.500616,16.5042567 C182.194465,16.4906686 181.878595,16.2839356 181.553006,15.8792047 L179.896874,13.6721111 L175.012063,7.39732675 C173.451178,5.30184964 172.661989,5.03494079 171.895153,5.00485289 L170.526707,5.00485289 L168.346716,5.00485289 L167.369949,5.00485289 C165.701182,5.01067635 165.701182,6.20836915 166.599225,7.39732675 L169.509119,11.1854913 L169.520781,11.1854913 L171.10888,13.251851 L176.473813,20.7505338 C176.9102,21.3299687 177.122076,21.9142564 177.143458,22.5024264 C177.122076,23.0905965 176.9102,23.6748842 176.473813,24.2543191 L171.10888,31.7530019 L169.520781,33.8203322 L169.509119,33.8203322 L166.599225,37.6075261 C165.701182,38.7974543 165.701182,39.9941765 167.369949,40 L168.346716,40 L170.526707,40 L171.895153,40 C172.661989,39.9708827 173.451178,39.7030032 175.012063,37.6075261 L179.896874,31.3327417 L181.553006,29.1256482 C181.878595,28.7218879 182.194465,28.5141843 182.500616,28.5005962 L182.500616,28.4957433 C182.804823,28.5083608 183.120694,28.7160644 183.445311,29.1198247 L185.103386,31.3269183 L189.988197,37.6017027 C191.547138,39.6981504 192.338271,39.9650592 193.105107,39.9941765 L194.472582,39.9941765 L196.6516,39.9941765 L197.62934,39.9941765 C199.299078,39.9883531 199.299078,38.7916308 198.400063,37.6017027 L195.491142,33.8145087 Z" id="Fill-4" fill="#FB3353" stroke="#FFFFFF" stroke-width="2"></path>
            <path d="M156.768548,37.8042672 L144.448486,7.23060106 C143.869919,5.77775625 143.248568,5.09104494 142.000031,5 C141.819169,5.00096856 141.175453,5.01549701 141.000424,5.01452845 C139.751887,5.10557339 139.128592,5.7922847 138.55197,7.24512951 L126.231908,37.8197642 C125.718491,39.1893126 126.057851,39.8818353 127.247073,39.8983009 L130.792373,40 C131.799759,39.8983009 132.519321,39.348157 132.949113,38.345694 L141.503145,17.060549 L150.051343,38.330197 C150.481135,39.33266 151.198752,39.8828039 152.207111,39.984503 L155.75241,39.8828039 C156.942604,39.8663383 157.280993,39.1738156 156.768548,37.8042672" id="Fill-6" fill="#FB3353" stroke="#FFFFFF" stroke-width="2"></path>
            <path d="M289.031727,11.3863088 C289.600741,11.3329359 290,11.1204148 290,10.2703302 L290,6.62738792 C290,5.19602407 289.287783,5 288.409604,5 L287.121735,5 L284.896888,5 L272.108285,5 L271.456764,5 L269.590396,5 C268.712217,5 268,5.72878254 268,6.62738792 L268,9.11747581 L268,11.1757285 L268,33.8233011 L268,35.9329858 L268,38.3726121 C268,39.270247 268.712217,39.9990296 269.590396,39.9990296 L271.611346,39.9990296 C271.617036,39.9990296 271.620829,40 271.625571,40 L285.580654,40 L286.929218,40 L288.409604,40 C289.287783,40 290,39.2712175 290,38.3745529 L290,35.5933402 C290,34.6957052 289.287783,33.5952533 288.409604,33.5952533 L287.599707,33.5952533 L276.726787,33.5952533 L274.592982,33.5952533 L274.592982,30.4336374 L274.592982,24.6742174 L287.555134,24.6742174 C288.433313,24.6742174 289.14553,24.290903 289.14553,23.3922977 L289.14553,20.6867774 C289.14553,19.7891424 288.433313,19.0603599 287.555134,19.0603599 L274.592982,19.0603599 L274.55979,19.0603599 L274.55979,11.3863088 L289.031727,11.3863088 Z" id="Fill-8" fill="#FB3353" stroke="#FFFFFF" stroke-width="2"></path>
            <path d="M325.937327,4.84561081 L324.63136,4.84561081 L319.961393,4.84561081 L306.56726,4.84561081 L300.887127,4.84561081 L300.591327,4.84561081 C299.834427,4.84561081 299.220593,5.46344865 299.220593,6.22431351 L299.220593,9.71923243 C299.220593,10.4800973 299.834427,11.0979351 300.591327,11.0979351 L306.56726,11.0979351 C306.615593,11.0979351 306.661027,11.0882054 306.705493,11.0833405 L309.909993,11.0833405 L309.909993,33.6388 L309.909993,35.4222595 L309.909993,38.4890703 C309.909993,39.2499351 310.523827,39.867773 311.27976,39.867773 L315.247927,39.867773 C316.004827,39.867773 316.617693,39.2499351 316.617693,38.4890703 L316.617693,35.4222595 L316.617693,33.6388 L316.617693,11.0833405 L319.82026,11.0833405 C319.868593,11.0882054 319.91306,11.0979351 319.961393,11.0979351 L325.937327,11.0979351 C326.69326,11.0979351 327.307093,10.4800973 327.307093,9.71923243 L327.307093,6.22431351 C327.307093,5.46344865 326.69326,4.84561081 325.937327,4.84561081" id="Fill-10" fill="#FB3353" stroke="#FFFFFF" stroke-width="2"></path>
            <path d="M257.772155,37.8098278 L245.645458,7.23097916 C245.075973,5.77788809 244.464374,5.09106037 243.235433,5 C243.187577,5.00096873 243.144507,5.00484364 243.101436,5.00871855 L243.101436,5.00290618 L243.047838,5.00096873 C242.055305,5.10171638 241.348952,5.65292226 240.924948,6.6555551 L232.50613,27.9433394 L224.092098,6.67008601 C223.668095,5.66745317 222.961741,5.11721601 221.969209,5.01549964 L221.956766,5.01549964 L221.956766,5.01162473 C221.891682,5.00871855 221.833298,5.00096873 221.765342,5 C220.536402,5.09106037 219.923846,5.77788809 219.35436,7.23097916 L207.227664,37.8098278 C206.723262,39.1796083 207.057296,39.8722484 208.226896,39.8887167 L211.717508,39.9904331 C212.71004,39.8887167 213.416394,39.3384796 213.840398,38.3358467 L221.822769,18.1504742 L229.605103,37.7759223 C230.175546,39.2290134 230.787145,39.9013102 232.017043,39.9923706 C232.102226,39.9923706 232.289821,40.0030266 232.481245,39.9991516 C232.693726,39.9952767 232.909077,39.9923706 233.000004,39.9923706 C234.228944,39.9013102 234.8415,39.2135137 235.410986,37.7604227 L243.181834,18.1640364 L251.160377,38.3358467 C251.583424,39.3384796 252.289778,39.8887167 253.283267,39.9904331 L256.772922,39.8887167 C257.943479,39.8722484 258.276556,39.1796083 257.772155,37.8098278" id="Fill-13" fill="#FB3353" stroke="#FFFFFF" stroke-width="2"></path>
            <g id="Rectangle-5">
                <use fill="black" fill-opacity="1" filter="url(#filter-2)" xlink:href="#path-1"></use>
                <use fill="#FFFFFF" fill-rule="evenodd" xlink:href="#path-1"></use>
            </g>
            <g id="Group-4" transform="translate(14.000000, 7.000000)">
                <g id="Group-3" transform="translate(2.000000, 0.000000)">
                    <mask id="mask-4" fill="white">
                        <use xlink:href="#path-3"></use>
                    </mask>
                    <g id="Clip-2"></g>
                    <path d="M8.86538009,17.4041363 C9.29740137,21.0735598 12.3283392,23.9164237 16.0048403,23.9164237 C19.9788188,23.9164237 23.2004632,20.5970357 23.2004632,16.502435 C23.2004632,12.4072082 19.9788188,9.087194 16.0048403,9.087194 C12.7492514,9.087194 9.99974453,11.3170262 9.11286657,14.3759227 L0.432941965,10.7616033 C0.936555338,10.0709251 1.74196643,8.65387642 2.18756552,7.99137642 C2.83251157,7.03081404 3.2540409,6.47413871 4.3569295,5.21989721 C4.74883451,4.77342982 5.18023861,4.36578568 5.62460335,3.97379608 C6.35348496,3.31630553 7.22308207,2.64879608 8.37102432,2.02198842 L8.37040715,2.02449315 C10.6397532,0.750840028 13.2399041,0.024469518 16.0048403,0.024469518 C24.8359723,0.024469518 31.9939477,7.40151347 31.9939477,16.502435 C31.9939477,25.6027304 24.8359723,32.9797743 16.0048403,32.9797743 C7.17555973,32.9797743 0.0169671941,25.6027304 0.0169671941,16.502435 C0.0169671941,16.2187748 0.0237560999,15.9376193 0.0379510847,15.6583424 L8.86538009,17.4041363 Z" id="Fill-1" fill="#FB3353" mask="url(#mask-4)"></path>
                </g>
                <g id="Group-8" transform="translate(0.000000, 15.000000)" fill="#FB3353">
                    <path d="M1.78721053,11.0580634 L1.78721053,0.0610126373 L10.9532339,1.77133662 L10.9532339,18.0009444 C10.9532339,20.6372321 10.3742865,24.4118888 8.7332924,27.0592586 C5.07305848,32.9690497 0.000192982456,32.9690497 0.000192982456,32.9690497 C0.000192982456,32.9690497 1.60323392,31.2334834 1.78721053,28.1391392 C2.02200585,24.1890172 1.78721053,11.0580634 1.78721053,11.0580634" id="Fill-6"></path>
                </g>
            </g>
            <text id="Плати-телефоном.-Пол" opacity="0.87" font-family="Roboto-Regular, Roboto" font-size="14" font-weight="normal" fill="#000000">
                <tspan x="91" y="58" fill="#FFFFFF">Плати телефоном. Получай бонусы.</tspan>
            </text>
        </g>
    </g>
</svg>
